<?xml version="1.0" standalone="no"?>
<!DOCTYPE svg PUBLIC "-//W3C//DTD SVG 20010904//EN"
 "http://www.w3.org/TR/2001/REC-SVG-20010904/DTD/svg10.dtd">
<svg version="1.0" xmlns="http://www.w3.org/2000/svg"
 width="450.000000pt" height="177.000000pt" viewBox="0 0 450.000000 177.000000"
 preserveAspectRatio="xMidYMid meet">
<metadata>
Created by potrace 1.16, written by Peter Selinger 2001-2019
</metadata>
<g transform="translate(0.000000,177.000000) scale(0.100000,-0.100000)"
fill="#000000" stroke="none">
<path d="M108 1311 c-97 -62 -116 -191 -48 -327 42 -83 177 -223 288 -298 83
-57 73 -58 187 27 137 102 245 230 279 330 51 151 -20 283 -158 295 -89 7
-150 -22 -207 -101 -16 -22 -29 -35 -29 -29 0 22 -75 95 -115 113 -63 29 -142
25 -197 -10z"/>
<path d="M1000 1271 c0 -6 12 -16 27 -23 39 -19 45 -59 41 -264 -3 -190 -8
-210 -50 -216 -12 -2 -23 -9 -26 -15 -3 -10 35 -13 165 -13 145 0 173 3 203
19 82 43 106 141 50 205 -17 19 -47 40 -67 47 l-35 11 38 22 c94 52 93 182 -1
222 -40 16 -345 21 -345 5z m257 -21 c6 0 25 -12 42 -26 27 -22 31 -32 31 -74
0 -62 -31 -95 -106 -110 -29 -6 -58 -9 -64 -5 -6 3 -10 51 -10 110 l0 104 28
4 c15 2 36 3 47 1 11 -2 25 -4 32 -4z m44 -266 c37 -19 49 -43 49 -96 0 -88
-64 -137 -159 -122 -31 5 -41 11 -46 31 -9 36 6 197 19 206 15 11 103 -1 137
-19z"/>
<path d="M1594 1071 c-86 -52 -117 -157 -74 -245 30 -62 70 -89 141 -94 49 -4
65 0 101 21 120 70 126 250 10 315 -51 29 -134 30 -178 3z m144 -34 c12 -11
30 -45 38 -75 41 -140 -74 -267 -157 -174 -111 124 1 359 119 249z"/>
<path d="M2384 1071 c-86 -52 -117 -157 -74 -245 30 -62 70 -89 141 -94 49 -4
65 0 101 21 120 70 126 250 10 315 -51 29 -134 30 -178 3z m144 -34 c12 -11
30 -45 38 -75 41 -140 -74 -267 -157 -174 -111 124 1 359 119 249z"/>
<path d="M3276 1056 l-36 -33 0 28 c0 28 -1 29 -55 29 -30 0 -55 -2 -55 -5 0
-2 11 -15 25 -29 23 -23 25 -32 25 -119 0 -125 -6 -152 -39 -168 -24 -12 -21
-14 54 -20 48 -4 84 -2 90 4 7 6 6 11 -1 14 -42 15 -49 31 -47 101 2 87 17
143 45 169 38 34 63 37 95 9 27 -23 28 -29 31 -121 5 -113 -1 -141 -28 -148
-11 -3 -20 -12 -20 -21 0 -14 11 -15 78 -9 77 6 98 12 74 20 -37 14 -42 33
-42 159 0 119 -1 126 -25 149 -20 21 -34 25 -79 25 -48 0 -59 -4 -90 -34z"/>
<path d="M3666 1071 c-43 -28 -66 -70 -66 -119 0 -36 6 -50 33 -76 l32 -32
-30 -20 c-23 -15 -31 -28 -33 -57 -3 -35 0 -39 27 -50 17 -6 31 -14 31 -17 0
-4 -16 -14 -35 -23 -67 -32 -73 -106 -10 -133 21 -8 68 -14 122 -14 136 1 201
38 210 123 4 36 1 48 -19 72 -23 27 -31 29 -138 36 -119 9 -142 17 -124 47 7
11 36 21 84 29 56 9 80 19 101 39 33 31 46 85 31 119 -9 19 -7 26 8 40 18 16
19 16 32 -4 15 -25 56 -28 65 -5 3 8 1 26 -5 40 -16 34 -73 34 -107 -1 -14
-13 -25 -21 -25 -17 0 4 -13 15 -29 25 -39 23 -118 22 -155 -2z m129 -42 c17
-32 20 -111 5 -139 -31 -57 -100 -39 -121 31 -31 103 70 198 116 108z m40
-339 c37 -8 65 -31 65 -53 0 -5 -15 -24 -32 -41 -25 -25 -45 -34 -82 -39 -120
-17 -199 50 -125 105 45 33 108 44 174 28z"/>
<path d="M1900 1074 c0 -3 11 -15 24 -25 27 -21 136 -257 143 -310 4 -25 -2
-50 -20 -85 -38 -76 -75 -99 -87 -54 -11 47 -80 34 -80 -15 0 -57 85 -74 140
-29 40 34 54 63 130 264 75 200 84 218 115 232 44 20 27 28 -55 28 -82 0 -99
-8 -55 -28 32 -15 32 -38 1 -130 -39 -114 -37 -114 -84 -2 -23 55 -42 104 -42
110 0 6 11 16 25 22 45 20 27 28 -65 28 -49 0 -90 -3 -90 -6z"/>
<path d="M2700 1072 c0 -5 9 -12 20 -15 18 -5 20 -14 20 -109 1 -125 12 -187
37 -206 31 -24 118 -11 153 23 l30 29 0 -27 c0 -26 2 -27 58 -26 55 0 56 1 35
16 -22 15 -23 21 -23 169 l0 154 -55 0 c-54 0 -73 -13 -36 -25 25 -8 34 -58
25 -148 -7 -82 -21 -110 -65 -132 -28 -15 -33 -15 -55 -1 -30 21 -34 36 -37
181 l-2 120 -52 3 c-29 2 -53 -1 -53 -6z"/>
</g>
</svg>
