<?xml version="1.0" standalone="no"?>
<!DOCTYPE svg PUBLIC "-//W3C//DTD SVG 20010904//EN"
 "http://www.w3.org/TR/2001/REC-SVG-20010904/DTD/svg10.dtd">
<svg version="1.0" xmlns="http://www.w3.org/2000/svg"
 width="194.000000pt" height="86.000000pt" viewBox="0 0 194.000000 86.000000"
 preserveAspectRatio="xMidYMid meet">
<metadata>
Created by potrace 1.16, written by Peter Selinger 2001-2019
</metadata>
<g transform="translate(0.000000,86.000000) scale(0.100000,-0.100000)"
fill="#000000" stroke="none">
<path d="M244 605 c1 -8 8 -21 14 -27 18 -18 16 -174 -2 -181 -16 -6 -15 -32
1 -48 7 -7 45 -10 101 -8 76 3 94 7 114 26 l23 22 28 -25 c43 -37 100 -33 143
10 22 22 34 44 35 63 1 25 4 22 25 -26 32 -68 26 -92 -21 -84 -26 4 -36 2 -41
-11 -11 -29 5 -65 32 -72 56 -14 96 28 136 146 18 52 23 60 26 38 4 -33 42
-75 76 -84 41 -10 93 4 115 31 21 28 31 31 31 12 0 -8 8 -21 18 -30 14 -13 42
-16 147 -16 251 0 225 4 225 -35 0 -46 29 -66 95 -66 60 0 112 28 121 65 8 34
0 52 -36 73 -30 19 -30 19 -10 37 11 10 20 24 20 32 0 7 7 13 15 13 8 0 19 9
25 21 9 16 8 25 -6 40 -14 16 -31 19 -99 19 -86 0 -107 -9 -118 -55 -4 -18 -5
-18 -6 2 -2 46 -32 53 -233 52 -164 0 -186 -2 -181 -16 5 -13 3 -13 -23 0 -35
18 -364 24 -364 7 0 -7 -6 -7 -19 0 -11 5 -42 10 -70 10 -54 0 -91 -23 -91
-56 0 -13 -3 -14 -15 -4 -12 10 -12 15 2 36 13 20 13 29 4 53 -17 40 -49 51
-151 51 -73 0 -88 -3 -86 -15z"/>
</g>
</svg>
